#!OML:ASF H:\LiuWeirdWalks\Patient Classification 1\Patient 1\Session 1\male.ASF
:FULLY-SPECIFIED
:DEGREES
186
root 1.11073 17.8309 -30.4713 2.65038 4.08799 2.3515
lowerback 5.84598 -1.05697 -4.14589
upperback -2.08323 -1.63166 2.2231
thorax -5.27611 -0.628189 4.82389
lowerneck -21.0921 2.05902 5.70922
upperneck 25.8446 3.22933 -7.60255
head 12.2653 0.997186 -3.31867
rclavicle -3.49861e-014 4.13472e-014
rhumerus -40.364 -12.4681 -68.5066
rradius 29.1074
rwrist -4.19812
rhand -15.3655 -2.32643
rfingers 7.12502
rthumb 10.8122 -32.0281
lclavicle -3.49861e-014 4.13472e-014
lhumerus -42.3921 7.14034 78.6939
lradius 32.2245
lwrist 5.17888
lhand -10.2341 2.10142
lfingers 7.12502
lthumb 15.7582 31.4799
rfemur -30.3944 -2.71367 15.3173
rtibia 58.2857
rfoot -16.8347 -22.1392
rtoes -8.58494
lfemur -0.155011 -0.633373 -27.483
ltibia 17.6985
lfoot -12.3578 12.3
ltoes -7.52039
187
root 1.11642 17.8329 -30.4305 2.62996 4.16775 2.37451
lowerback 5.88143 -1.12724 -4.19872
upperback -2.18439 -1.73018 2.25834
thorax -5.38944 -0.66909 4.90445
lowerneck -20.6883 2.05067 5.62438
upperneck 25.7087 3.25317 -7.58598
head 12.1308 1.00941 -3.28757
rclavicle -1.53561e-014 1.11319e-014
rhumerus -40.6263 -12.255 -68.4309
rradius 29.0797
rwrist -4.18585
rhand -15.3325 -2.29491
rfingers 7.12502
rthumb 10.844 -31.9949
lclavicle -1.53561e-014 1.11319e-014
lhumerus -42.6612 7.2074 78.6504
lradius 32.2226
lwrist 5.24921
lhand -10.2137 2.11379
lfingers 7.12502
lthumb 15.7778 31.4908
rfemur -30.7618 -2.77156 15.3806
rtibia 57.5147
rfoot -17.2051 -22.1828
rtoes -8.68576
lfemur 0.213076 -0.616776 -27.5107
ltibia 17.3109
lfoot -12.2599 12.2231
ltoes -7.65311
188
root 1.12169 17.8349 -30.388 2.60551 4.22995 2.37889
lowerback 5.89917 -1.19301 -4.23615
upperback -2.3002 -1.82084 2.2959
thorax -5.50919 -0.705925 4.97801
lowerneck -20.1931 2.02296 5.51323
upperneck 25.5508 3.25137 -7.54046
head 11.9667 1.0133 -3.24432
rclavicle 3.54085e-015 3.18055e-015
rhumerus -40.9358 -12.0012 -68.3619
rradius 29.0637
rwrist -4.19369
rhand -15.3148 -2.2801
rfingers 7.12502
rthumb 10.8612 -31.9792
lclavicle 3.54085e-015 3.18055e-015
lhumerus -42.9647 7.2413 78.6121
lradius 32.2284
lwrist 5.31161
lhand -10.1978 2.16363
lfingers 7.12502
lthumb 15.7932 31.5394
rfemur -31.089 -2.78704 15.458
rtibia 56.6256
rfoot -17.5123 -22.2042
rtoes -8.82284
lfemur 0.603597 -0.603975 -27.5189
ltibia 16.9008
lfoot -12.1489 12.1689
ltoes -7.77787
189
root 1.12671 17.837 -30.3445 2.58031 4.28159 2.38287
lowerback 5.92009 -1.22554 -4.26767
upperback -2.35234 -1.86714 2.31521
thorax -5.56938 -0.724386 5.02311
lowerneck -19.9402 1.99154 5.43953
upperneck 25.4612 3.22259 -7.49132
head 11.8766 1.00456 -3.21385
rclavicle 8.26199e-016 3.18055e-015
rhumerus -41.1398 -11.8662 -68.3166
rradius 29.0479
rwrist -4.22295
rhand -15.3052 -2.30264
rfingers 7.12502
rthumb 10.8704 -32.0013
lclavicle 8.26199e-016 3.18055e-015
lhumerus -43.1111 7.19658 78.617
lradius 32.2412
lwrist 5.3679
lhand -10.1993 2.2427
lfingers 7.12502
lthumb 15.7917 31.6186
rfemur -31.382 -2.77228 15.5267
rtibia 55.6291
rfoot -17.7774 -22.189
rtoes -8.97546
lfemur 1.00598 -0.571631 -27.5237
ltibia 16.4775
lfoot -12.0343 12.1108
ltoes -7.8935
190
root 1.13153 17.8392 -30.3001 2.55696 4.30149 2.3582
lowerback 5.94303 -1.21673 -4.26101
upperback -2.34012 -1.85522 2.32112
thorax -5.57099 -0.718799 5.02493
lowerneck -19.9515 1.96734 5.43141
upperneck 25.4287 3.17771 -7.45614
head 11.8618 0.988113 -3.20538
rclavicle 2.05804e-014 -9.54166e-015
rhumerus -41.2364 -11.8726 -68.2828
rradius 29.0189
rwrist -4.23444
rhand -15.3072 -2.33062
rfingers 7.12502
rthumb 10.8685 -32.0294
lclavicle 2.05804e-014 -9.54166e-015
lhumerus -43.0844 7.08578 78.6547
lradius 32.2438
lwrist 5.38687
lhand -10.2075 2.32597
lfingers 7.12502
lthumb 15.7839 31.7025
rfemur -31.6516 -2.70805 15.6195
rtibia 54.5322
rfoot -18.0072 -22.1478
rtoes -9.14424
lfemur 1.41438 -0.533452 -27.4993
ltibia 16.037
lfoot -11.9054 12.0773
ltoes -7.99448
191
root 1.13571 17.8414 -30.2555 2.56043 4.30296 2.32298
lowerback 5.9461 -1.20366 -4.25094
upperback -2.33976 -1.83629 2.33448
thorax -5.57446 -0.70942 5.03156
lowerneck -19.9601 1.95376 5.4334
upperneck 25.4002 3.14636 -7.42533
head 11.8493 0.978218 -3.19823
rclavicle 2.23509e-014 1.59028e-015
rhumerus -41.3424 -11.8287 -68.2661
rradius 29.0128
rwrist -4.28356
rhand -15.3254 -2.39826
rfingers 7.12502
rthumb 10.8509 -32.0979
lclavicle 2.23509e-014 1.59028e-015
lhumerus -43.0725 6.98565 78.692
lradius 32.258
lwrist 5.37972
lhand -10.2164 2.36498
lfingers 7.12502
lthumb 15.7752 31.7421
rfemur -31.9283 -2.61121 15.718
rtibia 53.3452
rfoot -18.157 -22.0725
rtoes -9.33231
lfemur 1.7998 -0.483514 -27.461
ltibia 15.5796
lfoot -11.7654 12.0476
ltoes -8.09252
192
root 1.14004 17.8438 -30.2092 2.56519 4.28754 2.30264
lowerback 5.94669 -1.1934 -4.25557
upperback -2.34773 -1.82223 2.34954
thorax -5.58433 -0.701513 5.04898
lowerneck -19.9631 1.96491 5.45376
upperneck 25.3767 3.15022 -7.4126
head 11.8412 0.98369 -3.1956
rclavicle -5.10628e-015 -3.18055e-015
rhumerus -41.4498 -11.7465 -68.2521
rradius 28.9989
rwrist -4.31852
rhand -15.3475 -2.462
rfingers 7.12502
rthumb 10.8296 -32.1628
lclavicle -5.10628e-015 -3.18055e-015
lhumerus -43.1047 6.92291 78.7165
lradius 32.295
lwrist 5.36144
lhand -10.2346 2.38958
lfingers 7.12502
lthumb 15.7577 31.7681
rfemur -32.1732 -2.50108 15.7901
rtibia 52.0775
rfoot -18.2716 -21.9657
rtoes -9.53768
lfemur 2.20528 -0.423378 -27.441
ltibia 15.0938
lfoot -11.6212 12.0209
ltoes -8.18051
193
root 1.14371 17.8465 -30.1621 2.58209 4.27338 2.27738
lowerback 5.93537 -1.18669 -4.25687
upperback -2.35971 -1.81218 2.36553
thorax -5.59121 -0.695721 5.06555
lowerneck -19.9848 1.97674 5.46456
upperneck 25.3882 3.15567 -7.38693
head 11.8501 0.990109 -3.18724
rclavicle -2.00027e-014 8.74653e-015
rhumerus -41.5402 -11.706 -68.2213
rradius 28.9501
rwrist -4.29201
rhand -15.3554 -2.48572
rfingers 7.12502
rthumb 10.822 -32.1869
lclavicle -2.00027e-014 8.74653e-015
lhumerus -43.1494 6.88476 78.7236
lradius 32.3481
lwrist 5.33754
lhand -10.2366 2.3533
lfingers 7.12502
lthumb 15.7558 31.732
rfemur -32.4017 -2.38198 15.8614
rtibia 50.7389
rfoot -18.3271 -21.8513
rtoes -9.75328
lfemur 2.62327 -0.364624 -27.4124
ltibia 14.5603
lfoot -11.4582 11.9825
ltoes -8.28024
194
root 1.14681 17.8497 -30.1134 2.60405 4.27402 2.26701
lowerback 5.9199 -1.1918 -4.27444
upperback -2.37745 -1.81928 2.37992
thorax -5.59941 -0.697696 5.0914
lowerneck -20.002 1.99581 5.47221
upperneck 25.4178 3.1746 -7.36394
head 11.8662 1.00193 -3.17767
rclavicle 4.66709e-014 -2.14687e-014
rhumerus -41.6209 -11.6781 -68.179
rradius 28.8753
rwrist -4.21511
rhand -15.3637 -2.49834
rfingers 7.12502
rthumb 10.8139 -32.1999
lclavicle 4.66709e-014 -2.14687e-014
lhumerus -43.2174 6.87605 78.7143
lradius 32.4216
lwrist 5.3293
lhand -10.2199 2.28812
lfingers 7.12502
lthumb 15.7719 31.6655
rfemur -32.5985 -2.27371 15.9095
rtibia 49.3395
rfoot -18.3468 -21.7206
rtoes -9.94926
lfemur 3.07415 -0.315691 -27.3956
ltibia 13.9632
lfoot -11.2695 11.9241
ltoes -8.39177
195
root 1.14949 17.8532 -30.0635 2.62651 4.28998 2.27951
lowerback 5.90956 -1.20724 -4.31342
upperback -2.39943 -1.84254 2.38842
thorax -5.61271 -0.706749 5.1251
lowerneck -19.9987 2.01596 5.47659
upperneck 25.4327 3.1989 -7.34994
head 11.8731 1.01509 -3.1696
rclavicle 1.30328e-014 3.18055e-015
rhumerus -41.6756 -11.7072 -68.1085
rradius 28.744
rwrist -4.05673
rhand -15.3597 -2.47513
rfingers 7.12502
rthumb 10.8178 -32.1765
lclavicle 1.30328e-014 3.18055e-015
lhumerus -43.2889 6.89269 78.6883
lradius 32.4869
lwrist 5.34435
lhand -10.1865 2.19123
lfingers 7.12502
lthumb 15.804 31.5661
rfemur -32.7638 -2.17785 15.9253
rtibia 47.8925
rfoot -18.3358 -21.5738
rtoes -10.0985
lfemur 3.56856 -0.277264 -27.3993
ltibia 13.29
lfoot -11.0454 11.8408
ltoes -8.53624
196
root 1.15103 17.8571 -30.0127 2.66017 4.32884 2.28919
lowerback 5.90066 -1.22478 -4.34904
upperback -2.43507 -1.86873 2.392
thorax -5.64112 -0.716687 5.15242
lowerneck -19.9685 2.01984 5.47298
upperneck 25.4503 3.20227 -7.3303
head 11.8737 1.01928 -3.16135
rclavicle -5.26158e-015 -7.95139e-015
rhumerus -41.7569 -11.7604 -68.0277
rradius 28.6168
rwrist -3.89951
rhand -15.3529 -2.45444
rfingers 7.12502
rthumb 10.8244 -32.1555
lclavicle -5.26158e-015 -7.95139e-015
lhumerus -43.3595 6.89344 78.656
lradius 32.5426
lwrist 5.36881
lhand -10.1469 2.13189
lfingers 7.12502
lthumb 15.8422 31.5038
rfemur -32.9243 -2.09028 15.9405
rtibia 46.4371
rfoot -18.3273 -21.4216
rtoes -10.2023
lfemur 4.03721 -0.243844 -27.389
ltibia 12.6451
lfoot -10.8259 11.7338
ltoes -8.71365
197
root 1.15265 17.861 -29.9604 2.69111 4.36784 2.32441
lowerback 5.89365 -1.2214 -4.40142
upperback -2.41255 -1.86895 2.37659
thorax -5.61239 -0.716584 5.16501
lowerneck -20.1435 2.05159 5.57101
upperneck 25.4864 3.22595 -7.38845
head 11.9275 1.02876 -3.19823
rclavicle -2.33696e-014 7.95139e-015
rhumerus -41.7417 -11.9227 -67.9524
rradius 28.4885
rwrist -3.7609
rhand -15.3394 -2.44868
rfingers 7.12502
rthumb 10.8373 -32.1491
lclavicle -2.33696e-014 7.95139e-015
lhumerus -43.2728 6.86395 78.6508
lradius 32.5682
lwrist 5.41874
lhand -10.1207 2.12213
lfingers 7.12502
lthumb 15.8674 31.492
rfemur -33.0567 -2.01455 15.9196
rtibia 44.9583
rfoot -18.3082 -21.2441
rtoes -10.3391
lfemur 4.55456 -0.207482 -27.4048
ltibia 11.9253
lfoot -10.5686 11.6074
ltoes -8.8892
198
root 1.15324 17.8562 -29.9072 2.73146 4.40678 2.36344
lowerback 5.87638 -1.22139 -4.4572
upperback -2.40259 -1.87367 2.36069
thorax -5.59046 -0.718123 5.17944
lowerneck -20.2787 2.07503 5.65381
upperneck 25.5061 3.24208 -7.44194
head 11.966 1.03471 -3.23137
rclavicle -2.72087e-015 7.95139e-015
rhumerus -41.7511 -12.0635 -67.8775
rradius 28.3746
rwrist -3.654
rhand -15.3217 -2.44569
rfingers 7.12502
rthumb 10.8545 -32.1452
lclavicle -2.72087e-015 7.95139e-015
lhumerus -43.2039 6.84325 78.6366
lradius 32.5799
lwrist 5.4864
lhand -10.1083 2.11991
lfingers 7.12502
lthumb 15.8794 31.4888
rfemur -33.2101 -1.93715 15.8895
rtibia 43.4876
rfoot -18.2456 -21.0426
rtoes -10.5608
lfemur 5.10206 -0.170773 -27.421
ltibia 11.1387
lfoot -10.274 11.4615
ltoes -9.08821
199
root 1.15383 17.8607 -29.8524 2.78588 4.45021 2.39189
lowerback 5.82051 -1.22342 -4.50678
upperback -2.38318 -1.87864 2.35101
thorax -5.53642 -0.721192 5.19521
lowerneck -20.434 2.09414 5.72252
upperneck 25.54 3.25467 -7.48946
head 12.0135 1.03801 -3.26093
rclavicle -1.75241e-014 -1.59028e-015
rhumerus -41.7505 -12.19 -67.8111
rradius 28.281
rwrist -3.59532
rhand -15.3079 -2.45153
rfingers 7.12502
rthumb 10.8678 -32.1503
lclavicle -1.75241e-014 -1.59028e-015
lhumerus -43.098 6.83527 78.6266
lradius 32.5587
lwrist 5.5598
lhand -10.1235 2.12172
lfingers 7.12502
lthumb 15.8647 31.4918
rfemur -33.3262 -1.85597 15.8648
rtibia 41.979
rfoot -18.179 -20.8344
rtoes -10.8187
lfemur 5.67649 -0.130668 -27.4178
ltibia 10.2706
lfoot -9.9363 11.2886
ltoes -9.32962
200
root 1.15392 17.8657 -29.7961 2.84492 4.49995 2.4225
lowerback 5.74559 -1.23613 -4.56084
upperback -2.37823 -1.89733 2.34579
thorax -5.48484 -0.730457 5.21924
lowerneck -20.5259 2.10242 5.74939
upperneck 25.5721 3.26023 -7.50783
head 12.0458 1.03897 -3.27302
rclavicle 1.39833e-014 -1.03368e-014
rhumerus -41.7831 -12.2451 -67.761
rradius 28.2155
rwrist -3.59452
rhand -15.2956 -2.45636
rfingers 7.12502
rthumb 10.8797 -32.1545
lclavicle 1.39833e-014 -1.03368e-014
lhumerus -43.0361 6.8418 78.6094
lradius 32.5389
lwrist 5.6305
lhand -10.1605 2.12886
lfingers 7.12502
lthumb 15.829 31.5018
rfemur -33.4235 -1.7751 15.8308
rtibia 40.4619
rfoot -18.11 -20.6322
rtoes -11.1306
lfemur 6.27903 -0.245757 -27.4293
ltibia 9.34898
lfoot -9.52821 11.243
ltoes -9.60248
